<?xml version="1.0" encoding="UTF-8"?>
<svg id="Capa_1" data-name="Capa 1" xmlns="http://www.w3.org/2000/svg" xmlns:xlink="http://www.w3.org/1999/xlink" viewBox="0 0 1080 1080">
  <defs>
    <style>
      .cls-1 {
        fill: #5c2483;
      }

      .cls-2 {
        fill: #fff;
      }

      .cls-3 {
        fill: none;
      }

      .cls-4 {
        fill: #ee7203;
      }

      .cls-5 {
        clip-path: url(#clippath);
      }
    </style>
    <clipPath id="clippath">
      <path class="cls-3" d="M157.85,492.19h0s12.89-68.82,29.99-113.97c20.76-54.82,53.29-89.42,77.98-115.69,25.55-27.18,80-83.8,171.39-113.97,109.58-36.18,202.01-11.77,244.23,0,78.5,21.89,161.1,92.56,161.11,92.55h0s-23.68,78.9-66.84,135.4c-57.54,75.31-153.4,115.69-153.39,115.69h0s-97.43,2.6-169.68,3.43c-154.42,1.77-294.77-3.43-294.79-3.43Z"/>
    </clipPath>
  </defs>
  <circle cx="539.92" cy="538.69" r="486.72"/>
  <path class="cls-1" d="M76.1,687.18c49.74-48.48,50.13-48.85,50.13-48.85,55.74-52.21,133.35-71.65,179.1-83.12,13.49-3.38,24.57-5.7,34.66-7.47,39.97-6.98,70.45-9.7,79.74-10.43,49.34-3.89,133.87-10.54,212.1-47.24,46.49-21.81,77.62-48.06,88.69-57.84,62.38-55.05,94.79-118.43,116.97-174.28,3.31-8.33,30.72-78.39,30.73-78.39-1.97-1.85-5.21-4.86-9.29-8.47-13.58-11.85-33.35-27.75-58.92-43.86-116.4-73.34-233.01-75.43-263.11-75.25-36.04.22-142.76,4.88-252.45,72.34-26.9,16.55-71.93,47.91-115.53,99.29-28.32,33.38-79.08,102.39-102.94,203.78-27.94,118.74-3.57,216.47,10.11,259.77Z"/>
  <path d="M662.61,558.82c2.12-1.73,4.24-3.47,6.36-5.2"/>
  <path d="M157.85,493.45s12.89-68.82,29.99-113.97c20.27-53.53,59.11-96.26,73.69-111.32,1.95-2.01,3.55-3.63,4.3-4.37,66.58-66.36,194.2-89.64,200.7-90.77,21.4-3.71,117.59-18.92,215.11,11.71,54.14,17,99.13,42.1,99.13,42.1s4.33,2.42,56.79,33.05c0,0-25.43,72.92-61.85,117.87-22.14,27.33-48.72,53.08-48.72,53.08-.03.03-.04.04-.04.04,0,0-16.99,12.08-31.66,22.12-31.37,21.47-24.15,14.46-39.25,25.37-20.27,5.33-51.26,12.37-89.57,16.57-55.24,6.05-97,1.77-113.83,1.94-57.63.6-161.59.03-294.79-3.43Z"/>
  <g class="cls-5">
    <g>
      <path class="cls-4" d="M222.51,405.56c-3.83,0-6.93,3.13-6.93,6.98s3.1,6.98,6.93,6.98,6.93-3.13,6.93-6.98-3.1-6.98-6.93-6.98Z"/>
      <ellipse class="cls-4" cx="222.28" cy="475.44" rx="9.43" ry="9.5"/>
      <path class="cls-4" d="M264.53,496.55c-.24-42.59-.49-85.17-.73-127.76h-77.74v176.28h240c-.42-15.59-.85-31.19-1.27-46.78-53.42-.58-106.83-1.16-160.25-1.73ZM222.28,493.8c-10.45,0-18.92-8.53-18.92-19.07s8.47-19.07,18.92-19.07,18.92,8.53,18.92,19.07-8.47,19.07-18.92,19.07ZM222.28,431.63c-10.45,0-18.92-8.54-18.92-19.07s8.47-19.07,18.92-19.07,18.92,8.53,18.92,19.07-8.47,19.07-18.92,19.07Z"/>
    </g>
  </g>
  <path class="cls-4" d="M963.46,298.74c-.37.14,48.25,73.57,60.86,184.62,2.12,18.63,10.69,106.44-23.13,209.33-11.96,36.38-25.41,63.05-31.14,73.97-10.22,19.48-39.45,71.88-94.27,124.59-70.89,68.16-143.72,97.57-164.88,105.61-110.99,42.16-208.7,31.37-250.61,24.29-30.46-5.15-135.2-25.85-234.2-109.87-43.14-36.62-80.67-86.85-86.67-95.92-.2-.31-11.57-17.51-11.57-17.52,0,0,0,0,.01,0,31.77,30.09,82.87,24.23,95.63,22.76,69.93-8.02,82.74-57.86,183.45-99.15,23.6-9.68,40.93-14.34,65.05-20.82,121.96-32.77,169.75-10.82,257.1-32.3,29.68-7.29,105.43-25.32,165.32-87.64,69.77-72.6,79.42-164.86,81.18-201.62.76-4.95,1.58-12.12,1.56-20.76-.1-34.37-13.49-59.67-13.7-59.59Z"/>
  <g>
    <path class="cls-2" d="M210.15,791.15c-3.1,3.11-4.93,4.83-5.48,5.15-.55.32-1.34.28-2.36-.14-9.1-3.83-18.22-7.65-27.37-11.49-14.61-6.24-22.6-10.05-23.98-11.42-2.27-2.27-5.63-5.74-10.06-10.41-4.43-4.67-7.79-8.14-10.06-10.41-1.07-1.06-1.37-1.82-.91-2.28,1.38-1.38,3.54-3.41,6.49-6.08,2.95-2.67,5.12-4.71,6.52-6.12.58-.58,1.16-.56,1.77.04,2.33,2.32,5.7,5.95,10.12,10.88,4.41,4.93,7.78,8.55,10.12,10.88,1.79,1.78,10.49,5.79,26.12,12.04-1.59-4.11-3.65-9.04-6.18-14.78-3.42-7.73-5.77-12.23-7.03-13.49-2.1-2.1-5.28-5.22-9.54-9.38-4.26-4.16-7.44-7.28-9.55-9.38-.78-.77-1.1-1.31-.98-1.6l1.1-1.11c1.26-1.27,3.1-3.27,5.5-6,2.41-2.73,4.24-4.73,5.5-5.99.69-.69,1.38-.69,2.07,0,2.22,2.21,5.53,5.57,9.95,10.09s7.75,7.89,9.99,10.13c1.79,1.78,6.08,10.59,12.9,26.44,2.29,5.87,5.87,14.61,10.72,26.2.4.86.6,1.37.59,1.52,0,.15-.24.51-.69,1.08-1.06,1.29-2.81,3.17-5.27,5.64Z"/>
    <path class="cls-2" d="M283.98,723.69c.47.56.47,1.22.03,1.95-.55.87-2.78,2.92-6.7,6.15-3.59,2.96-6.01,4.74-7.25,5.33-1.03.48-2.16.23-3.36-.78-4.57-3.81-7.23-5.68-7.97-5.6-.58.11-4.04,2.77-10.37,7.99-4.27,3.52-6.43,5.53-6.47,6.04-.02.85.89,2.92,2.71,6.21,1.67,3,2.25,4.89,1.75,5.66-.65.95-3.41,3.44-8.29,7.46-3.84,3.17-6.14,4.29-6.89,3.38-.67-.81-6.09-13.17-16.24-37.08-10.97-25.87-17.04-40.05-18.22-42.56-.68-1.44-.82-2.33-.42-2.66.68-.56,1.79-1.34,3.34-2.36,1.55-1.01,2.68-1.81,3.38-2.39.68-.56,1.63-1.44,2.86-2.63,1.23-1.19,2.17-2.06,2.82-2.6.48-.39,1.34-.24,2.6.47,3.94,2.28,16.84,10.61,38.68,25,21.97,14.49,33.3,22.16,34,23.01ZM221.96,702.83c.61,1.82,2.18,5.55,4.72,11.19,2.67,6.01,4.36,9.44,5.05,10.29.47.56,1.48.26,3.04-.92.83-.58,2.14-1.6,3.92-3.07,1.66-1.37,2.37-2.37,2.13-3.02-.08-.2-.24-.44-.47-.72-.85-1.03-3.78-3.41-8.79-7.13-4.85-3.58-8.05-5.79-9.62-6.61Z"/>
    <path class="cls-2" d="M298.05,617.89c2.45,3.93,6,9.92,10.65,17.97,4.65,8.04,8.21,14.05,10.68,18.01l21.24,34.09c.58.93.47,1.65-.33,2.15-.66.41-1.65,1.07-2.94,1.97-1.3.9-2.28,1.56-2.94,1.98-.72.45-1.84,1.05-3.36,1.81s-2.64,1.36-3.36,1.81c-.5.31-1.45.11-2.85-.6-4.07-2.1-13.17-6.73-27.29-13.88-3.91-2.02-9.75-4.94-17.54-8.75-.24-.14-.58-.22-1.01-.23-.07.38.06.83.38,1.34,2.49,4,6.32,9.95,11.49,17.84,5.17,7.89,8.99,13.83,11.49,17.84.75,1.21.76,2.04.01,2.51l-14.34,8.93c-.8.5-1.53.22-2.2-.85-2.32-3.73-5.68-9.44-10.07-17.14-4.39-7.7-7.76-13.43-10.1-17.19-2.47-3.97-6.3-9.82-11.48-17.55-5.18-7.73-9-13.57-11.45-17.5-.47-.76-.17-1.47.91-2.15,1.6-1,3.49-2.37,5.67-4.11.51-.41,1.46-1.32,2.86-2.71,1.19-1.17,2.18-2.01,2.99-2.51.33-.21,1.21.06,2.63.8l31.93,16.8c2.86,1.52,7.12,3.7,12.77,6.55,1.36.64,2.28.8,2.78.49.36-.23-.3-1.68-1.97-4.37-2.26-3.62-5.81-8.97-10.66-16.05-4.85-7.08-8.42-12.45-10.69-16.1-.79-1.28-.9-2.1-.32-2.46,1.66-1.03,4.1-2.68,7.34-4.93s5.68-3.9,7.34-4.93c.52-.33,1.12.05,1.79,1.11Z"/>
    <path class="cls-2" d="M429.34,653.83c.24.69.01,1.31-.66,1.84-.82.62-3.63,1.75-8.44,3.39-4.41,1.5-7.3,2.31-8.67,2.43-1.14.09-2.1-.55-2.87-1.92-2.93-5.18-4.76-7.87-5.47-8.05-.59-.1-4.76,1.17-12.53,3.81-5.24,1.78-7.97,2.91-8.19,3.37-.31.79-.2,3.05.34,6.77.5,3.39.38,5.37-.36,5.92-.94.66-4.4,2.02-10.38,4.05-4.71,1.6-7.26,1.85-7.64.73-.34-1-1.04-14.48-2.1-40.43-1.12-28.07-1.79-43.49-2.01-46.25-.13-1.59.06-2.46.55-2.63.83-.28,2.15-.62,3.96-1.02,1.81-.4,3.14-.75,4-1.04.83-.28,2.03-.77,3.61-1.45,1.57-.68,2.76-1.16,3.56-1.44.59-.2,1.34.25,2.27,1.35,2.88,3.53,12,15.88,27.36,37.05,15.44,21.32,23.33,32.5,23.68,33.54ZM378.68,612.41c-.07,1.91.08,5.96.47,12.14.38,6.57.74,10.37,1.1,11.41.24.69,1.29.76,3.17.21.98-.25,2.57-.74,4.76-1.49,2.03-.69,3.05-1.38,3.06-2.07,0-.21-.06-.49-.18-.84-.43-1.27-2.33-4.53-5.7-9.78-3.27-5.07-5.49-8.26-6.66-9.58Z"/>
    <path class="cls-2" d="M476,649.87c-2.77.43-6.38.91-10.85,1.45-5.81.74-9.43,1.2-10.85,1.39l-14.46,2.01c-1.44.27-3.53.51-6.26.73-.97-.05-1.53-.6-1.69-1.65-.68-4.37-1.65-10.94-2.9-19.69-1.25-8.75-2.22-15.31-2.9-19.69-.73-4.66-1.93-11.62-3.6-20.87-1.68-9.26-2.88-16.22-3.6-20.88-.14-.88.28-1.4,1.24-1.55.97-.15,2.41-.31,4.35-.49,1.93-.18,3.37-.34,4.3-.48,1.06-.17,2.63-.48,4.7-.95,2.07-.47,3.63-.78,4.7-.95.48-.08.77.27.86,1.04l.07.79c.79,7.61,2.13,19.02,4.01,34.23l2.43,15.91c.8,5.14,1.4,8.89,1.81,11.25.11.48.21.95.32,1.43.11.48.4.74.87.79.03,0,.45-.07,1.25-.19,2.9-.45,7.2-1.32,12.91-2.6,5.71-1.28,10.02-2.15,12.91-2.6.87-.13,1.37.26,1.52,1.18,1.07,6.87,1.59,12.85,1.57,17.95,0,1.07-.24,1.74-.72,2.03-.15.1-.8.25-1.96.43Z"/>
    <path class="cls-2" d="M564.8,632.76c.02.65-.3,1.51-.96,2.58-5.76,9.05-13.6,13.7-23.53,13.96-10.15.26-18.5-3.85-25.04-12.34-6.37-8.21-9.72-18.69-10.04-31.45-.32-12.35,2.42-22.91,8.22-31.67,6.05-9.18,13.92-13.9,23.62-14.15,10.54-.27,18.92,3.56,25.11,11.49.67.88,1.02,1.66,1.04,2.35.02.77-1.04,3.66-3.17,8.68-2.13,5.02-3.49,7.83-4.05,8.46-.25.33-.57.5-.97.51-.16,0-1-.79-2.5-2.37-1.81-1.9-3.57-3.38-5.29-4.44-2.61-1.56-5.3-2.3-8.07-2.23-4.78.12-8.55,2.46-11.3,7-2.53,4.21-3.71,9.36-3.56,15.46.16,6.18,1.61,11.32,4.36,15.44,2.98,4.47,6.86,6.65,11.65,6.53,2.83-.07,5.5-.91,7.99-2.52,1.63-1.06,3.29-2.52,4.97-4.4,1.39-1.58,2.17-2.37,2.33-2.38.32,0,.66.21.99.65.54.72,2.02,3.22,4.44,7.51,2.49,4.45,3.74,6.9,3.76,7.34Z"/>
    <path class="cls-2" d="M637.72,595.04c1.66,12.57-.17,23.53-5.47,32.87-5.42,9.49-13.15,14.89-23.18,16.21-9.97,1.31-18.83-1.95-26.56-9.78-7.57-7.65-12.19-17.72-13.83-30.21-1.65-12.53.19-23.49,5.52-32.88,5.43-9.61,13.14-15.07,23.11-16.38,9.91-1.31,18.75,1.98,26.52,9.85,7.62,7.77,12.25,17.87,13.89,30.32ZM619.35,597.34c-.79-6.04-2.94-10.99-6.44-14.83-3.65-4.03-7.86-5.73-12.64-5.1-4.55.6-8.11,3.41-10.67,8.41-2.48,4.84-3.34,10.13-2.58,15.89.81,6.17,2.92,11.11,6.34,14.84,3.6,3.91,7.84,5.54,12.71,4.9,4.55-.6,8.13-3.39,10.72-8.36,2.46-4.75,3.31-10.01,2.55-15.77Z"/>
    <path class="cls-2" d="M700.79,539.64c.93,4.54,2.17,11.39,3.73,20.54,1.56,9.16,2.8,16.03,3.74,20.61l8.05,39.35c.22,1.08-.13,1.71-1.06,1.9-.77.16-1.91.43-3.44.83s-2.68.67-3.44.83c-.83.17-2.09.34-3.78.52s-2.95.36-3.78.52c-.57.12-1.4-.4-2.46-1.55-3.08-3.39-10-10.9-20.75-22.51-2.96-3.25-7.42-8.02-13.39-14.31-.18-.21-.47-.4-.87-.57-.2.33-.24.79-.11,1.39.94,4.62,2.46,11.52,4.56,20.72,2.1,9.19,3.62,16.1,4.56,20.72.29,1.39,0,2.18-.86,2.35l-16.56,3.39c-.92.19-1.51-.33-1.76-1.57-.88-4.3-2.04-10.82-3.48-19.57-1.44-8.75-2.6-15.29-3.49-19.63-.94-4.58-2.49-11.39-4.65-20.45-2.17-9.06-3.71-15.85-4.64-20.39-.18-.87.35-1.44,1.6-1.69,1.85-.38,4.1-1,6.74-1.88.62-.21,1.83-.73,3.62-1.55,1.52-.68,2.74-1.12,3.67-1.31.38-.08,1.11.48,2.19,1.67l24.08,26.87c2.16,2.42,5.39,5.95,9.69,10.59,1.05,1.07,1.86,1.55,2.44,1.43.41-.08.3-1.68-.33-4.79-.86-4.18-2.32-10.43-4.41-18.76s-3.56-14.6-4.42-18.82c-.3-1.47-.12-2.28.55-2.42,1.91-.39,4.78-1.08,8.6-2.07,3.82-.99,6.68-1.68,8.6-2.07.61-.13,1.03.43,1.29,1.66Z"/>
    <path class="cls-2" d="M781.75,589.36c.19.62.11,1.54-.24,2.75-3.16,10.25-9.5,16.81-19.01,19.68-9.72,2.93-18.86,1.17-27.41-5.29-8.31-6.24-14.3-15.46-17.99-27.68-3.57-11.83-3.71-22.73-.43-32.72,3.41-10.45,9.76-17.08,19.05-19.88,10.1-3.05,19.18-1.57,27.25,4.45.88.67,1.42,1.33,1.62,1.99.22.74-.03,3.81-.77,9.21-.74,5.4-1.29,8.47-1.68,9.23-.16.39-.42.64-.79.75-.16.05-1.17-.5-3.04-1.63-2.25-1.36-4.34-2.32-6.28-2.88-2.93-.81-5.72-.82-8.37-.02-4.58,1.38-7.6,4.62-9.05,9.73-1.33,4.73-1.11,10.01.65,15.85,1.78,5.91,4.54,10.49,8.28,13.74,4.06,3.53,8.38,4.6,12.96,3.22,2.71-.82,5.06-2.33,7.04-4.54,1.3-1.45,2.51-3.3,3.63-5.55.93-1.89,1.47-2.86,1.62-2.91.31-.1.69.03,1.13.36.71.55,2.8,2.57,6.27,6.07,3.58,3.63,5.43,5.66,5.56,6.09Z"/>
    <path class="cls-2" d="M796.14,545.32c2.38,4.16,6.05,10.37,11.01,18.63,4.96,8.26,8.63,14.47,11.01,18.63.4.71.53,1.22.38,1.54-.04.07-.36.35-.98.84-1.68,1.33-4.05,2.88-7.13,4.65-4.13,2.36-6.83,3.73-8.12,4.09-.94.26-1.66-.05-2.17-.94.32.56-1.33-2.61-4.95-9.53-7.67-14.57-12.79-24.09-15.36-28.57-2.16-3.77-5.5-9.37-10.02-16.81-4.52-7.43-7.86-13.03-10.02-16.81-.44-.77-.34-1.35.31-1.72.87-.5,2.23-1.21,4.05-2.11,1.82-.9,3.18-1.61,4.05-2.11.87-.5,2.14-1.29,3.79-2.38,1.65-1.08,2.91-1.88,3.79-2.38.82-.47,1.45-.32,1.9.46,2.16,3.77,5.24,9.53,9.24,17.26,4,7.73,7.08,13.48,9.24,17.26Z"/>
    <path class="cls-2" d="M860.88,522.83c1.22,1.25,3.26,3.74,6.13,7.47,3.13,4.05,4.87,6.58,5.22,7.59.26.82.15,1.48-.34,1.95-.21.21-.6.5-1.18.89-1.99,1.37-7.09,6.07-15.32,14.09-1.79,1.75-4.48,4.34-8.05,7.76-3.57,3.43-6.24,6-8.01,7.73-.77.75-1.57.7-2.39-.14-3.18-3.26-7.81-8.29-13.88-15.11-6.08-6.81-10.71-11.85-13.89-15.11-3.23-3.32-9.4-9.36-18.51-18.13-2.34-2.26-5.86-5.61-10.56-10.05l-.63-.58c-.7-.62-.73-1.24-.1-1.86,1.73-1.68,4.37-4.15,7.95-7.41s6.22-5.73,7.95-7.41c1.7-1.66,4.21-4.22,7.52-7.68,3.31-3.46,5.82-6.02,7.52-7.68,1.21-1.18,2.46-1.3,3.76-.34.77.55,2.93,2.41,6.48,5.56,3.55,3.15,5.68,5.09,6.39,5.82.6.61.66,1.14.19,1.6-.14.14-.4.36-.78.67-6.82,5.41-12.7,10.52-17.64,15.34-1.24,1.21-1.64,2.31-1.21,3.31.23.46,1.26,1.64,3.1,3.53,1.93,1.98,3.44,3.06,4.53,3.24.94.17,1.96-.3,3.08-1.39.23-.23.67-.69,1.3-1.4.63-.7,1.17-1.27,1.61-1.7,2.94-2.86,5.81-5.86,8.62-9,.23-.28.8-.98,1.71-2.09.68-.89,1.25-1.56,1.72-2.02.56-.55,1.16-.48,1.82.19-.6-.61,1.36,1.82,5.88,7.29,2.08,2.51,4.26,4.93,6.53,7.25.57.58.51,1.2-.16,1.86l-3.57,2.63c-1.5,1.12-4.62,3.99-9.35,8.6l-3.71,3.62c-.95.93-1.23,1.77-.83,2.51.12.17.99,1.08,2.6,2.74,2.16,2.21,3.66,3.52,4.52,3.94,1.47.72,3.6-.08,6.39-2.4-.05.05,1.66-1.61,5.1-4.98,1.24-1.21,2.94-3.13,5.1-5.79,2.16-2.65,3.85-4.57,5.07-5.75.51-.5,1.28-.23,2.3.82Z"/>
    <path class="cls-2" d="M916.13,470.34c.24.15.25.53.01,1.15-.44,1.18-1.95,3.9-4.54,8.16-2.22,3.64-3.83,6.05-4.83,7.23-.48.55-.77.84-.9.89-.21.1-.67.09-1.4-.05-1.61-.41-3.99-1.02-7.16-1.84-4.13-1.03-10.28-2.45-18.46-4.26-1.66-.32-3.11.38-4.35,2.1.58-.79-.26.66-2.51,4.36-.26.42.5,1.16,2.27,2.24,2.36,1.44,5.99,3.41,10.89,5.91,4.9,2.51,8.52,4.48,10.88,5.91.59.36.86.7.81,1.01-.2.41-.41.82-.61,1.23-.86,1.73-2.35,4.33-4.47,7.8-2.42,3.98-3.98,6.31-4.68,6.99s-1.48.76-2.35.23c-3.82-2.32-9.49-5.98-17.02-10.96-7.53-4.99-13.22-8.65-17.07-10.99-14.68-8.94-26.29-15.65-34.84-20.13l-.75-.4c-.61-.33-.74-1.01-.4-2.04s2.72-5.41,7.13-13.12c3-5.23,5.42-9.37,7.29-12.43,3.86-6.34,8.8-10.42,14.81-12.25,6.79-2.08,13.98-.81,21.58,3.82,5.07,3.09,8.75,6.13,11.06,9.14,2.31,3.01,3.93,6.95,4.86,11.82.17.98.49,1.61.98,1.91-.03-.02,5.35.94,16.17,2.87,10.81,1.93,16.67,3.18,17.57,3.73ZM858.77,459.42c-4.23-2.58-7.84-3.25-10.83-2.02-2.3.96-4.57,3.28-6.8,6.95-1.61,2.64-1.96,4.35-1.06,5.13,1.08.89,4.43,3.04,10.05,6.46.8.49,1.99,1.19,3.57,2.11,1.58.92,2.75,1.62,3.51,2.08.18.11.62-.23,1.33-1.02,1.35-1.51,2.59-3.19,3.72-5.05,3.71-6.09,2.54-10.97-3.5-14.65Z"/>
    <path class="cls-2" d="M877.98,388.26c.76.3,1,.79.73,1.45-.46,1.15-2.58,5.58-6.35,13.29,9.46,4.03,16.07,6.81,19.84,8.33,4.45,1.79,11.19,4.35,20.24,7.67,9.05,3.32,15.79,5.88,20.24,7.67.72.29,1.11.61,1.19.95.04.12-.04.58-.23,1.38-.43,1.93-1.35,4.65-2.77,8.15-1.57,3.89-2.83,6.57-3.76,8.01-.53.77-1.28.96-2.26.56-4.45-1.8-11.06-4.64-19.82-8.53-8.77-3.89-15.38-6.74-19.82-8.53-2.94-1.19-9.54-3.71-19.82-7.58-1.68,6.34-3.25,11.31-4.7,14.9-.19.48-.48.65-.86.5-.49-.2-1.86-.99-4.1-2.39-2.44-1.55-3.93-2.47-4.47-2.76-1.73-.81-3.46-1.63-5.18-2.46-2.74-1.35-4.01-2.28-3.8-2.8.02-.06.13-.26.31-.61,2.77-4.57,6.08-11.64,9.94-21.21,1.1-2.72,2.76-7.87,5-15.47,1.21-4.08,1.82-6.13,1.83-6.16.24-.6.43-.93.56-.98.13-.05.52.04,1.18.26,1.02.41,2.42,1.01,4.2,1.8,1.97.87,3.37,1.47,4.2,1.8.94.38,2.37.84,4.27,1.38,1.91.54,3.31,1,4.21,1.36Z"/>
    <path class="cls-2" d="M919.99,325.54c12.26,3.22,21.71,9.06,28.36,17.51,6.73,8.6,8.81,17.8,6.23,27.59-2.56,9.73-8.93,16.69-19.1,20.88-9.95,4.12-21.01,4.57-33.2,1.37-12.22-3.21-21.67-9.06-28.34-17.55-6.84-8.67-8.98-17.86-6.42-27.59,2.54-9.67,8.93-16.6,19.15-20.82,10.07-4.12,21.18-4.58,33.33-1.38ZM915.16,343.41c-5.89-1.55-11.28-1.44-16.16.34-5.11,1.86-8.28,5.11-9.5,9.77-1.17,4.44.08,8.79,3.75,13.05,3.54,4.13,8.12,6.93,13.74,8.41,6.01,1.58,11.39,1.5,16.14-.25,4.99-1.85,8.1-5.16,9.35-9.91,1.17-4.44-.06-8.8-3.68-13.09-3.47-4.08-8.01-6.85-13.63-8.33Z"/>
  </g>
  <path d="M132.27,792.3c-.58.67-1.16,1.35-1.74,2.02"/>
  <g>
    <path d="M755.95,929.01c3.51,7.6,7.1,7.15,13.03,16.36,4.77,7.41,7.01,14.45,8.15,19.06,6.26-3.27,12.9-7.07,19.78-11.47,6.12-3.91,11.71-7.84,16.8-11.68l9.53-31.85c6.01-8.53,16.96-13.64,23.72-20.76,3.92-4.14,10.32-14.37-.57-11.42-8.96,2.43-19.02,12.59-27.68,16.31l20.57-40.2c1.6-7.91-5.83-11.33-10.09-4.12l-24.33,36.42c.95-15.99,3.78-34.89,1.97-50.82-1.48-13.02-10.53-9.53-12.42,2.42-1.35,8.52-.63,19.02-1.91,27.7-.73,4.95-2.07,9.79-2.51,14.78-2.64.25-1.6.02-1.96-1.48-2.77-11.56-5.64-30.85-12.67-40.68-4.96-6.94-11.09-3.02-9.95,3.92.96,5.78,4.99,14.63,6.31,21.42,2.28,11.64,4.23,25.84.74,37.35-.43,1.43-2.94,8.51-5.28,6.67-1.2-.94-5.51-14.17-9.35-18.34-3.55-3.84-16.67-10.96-17.4-2.39-.19,2.2,8.07,11.66,9.73,15.96,3.12,8.12,1.82,18.29,5.77,26.83Z"/>
    <path d="M649.15,824.95c6.65,9.23,3.59,9.72,11.84,19.34,5.35,6.24,11.23,12.24,14.95,17.9,2.89,19.91,4.17,39.94,6.34,59.59,1.01,9.11,3.09,18.16,2.73,27.35,4.2-.83,4.52-5.69,8.12-8.59,4.57-3.69,12.08-5.11,17.72-3.4,5.59,1.69,5.2,7.29,4.29,12.04-2.39,12.58-9.2,28.14-12.72,40.77-2.63,2.65-5.39,5.34-8.29,8.06-2.38,2.23-4.73,4.37-7.06,6.42,15.68-6.04,31.36-12.07,47.04-18.11-4.75-16.42-9.27-33.93-13.34-52.47-5.52-25.13-9.52-48.94-12.4-71.13,2.37-8.52,6.7-15.78,9.36-24.63,2.07-6.89,2.92-14.94,5.3-21.45,3.27-8.93,20.56-29.24,19.3-37.03-.59-3.62-4.17-4.95-7.19-2.45-6.76,5.6-12.1,20.68-20.52,25.81l17.01-51.35c-.25-7.24-7.75-8.17-10.03-1.39l-17.49,42.23c1-7.23,3.01-14.37,4.84-21.41,1.77-6.82,7.98-23.84,7.52-29.6-.07-.92-.5-2.56-1.14-3.2-2.89-2.9-7.38-.28-8.56,2.92l-17.01,49.38-1.89-10.99-1.12-37.01c-.81-4.43-6.82-6.55-9.33-3.03-.88,1.23-1.83,11.78-1.97,14.27-.82,14.43.94,45.51-4.31,57.78-5.85,13.68-13.65-7-17.68-10.97-3.32-3.27-15.11-8.17-18.18-4.34-.69.85-.75,1.91-.73,2.58.18,8.41,8.52,17.68,14.6,26.12Z"/>
  </g>
  <path d="M457.42,910.81c1.48,4.92,8.96,19.37,8.77,21.97-.23,3.18-.74,5.56-.96,6.37-2.15,7.86-5.83,29.42-12.33,79.83,6.53,1.65,13.75,3.16,21.6,4.35,6.95,1.05,13.49,1.7,19.55,2.08.2-11.52.18-20.9.11-27.39-.11-11.41-.1-16.04.05-25.22.09-5.47.87-11.31,1.05-16.77.21-6.47-1.13-16.4-.03-22.33,1-5.38,17.16-20.54,21.22-27.28,6.07-10.04,4.25-18.26,11.4-27.77,1.96-2.61,9.88-7.3,5.03-10.67-6.11-4.25-14.83,2.57-18.51,7.45-2.74,3.64-5.86,15.47-12.29,10.29-2.34-1.89-4.69-20.99-5.02-24.82-1.33-15.48-.52-32.09-2.22-47.4-.81-7.25-6.96-8.8-9.89-2-.42,15.2-.37,30.5-.96,45.69-.04,1.13.7,3.47-.92,3.25-5.03-17.61-11.03-35.05-18.03-51.93-3.83-3.64-8.54-1.53-8.89,3.66l11.97,41.74-11.67-29.83c-3.06-6.31-6.97-16.04-12.53-5.19l15.8,50.88c-6.76-4.24-12.77-23.83-18.11-27.11-3.78-2.32-6.58-.3-7.83,3.47,3.81,11.54,13.39,23.67,17.1,34.81,2.91,8.71,3.66,20.38,6.51,29.86Z"/>
  <path d="M514.45,948.55c-1.82,2.73-10.77,23.84-10.58,26.05,1.35,15.22,9.89,19.98,10.27,37.24.14,6.44-1.07,11.73-2.11,15.19,5.82.51,12.03.86,18.58.96,5.19.09,10.17.01,14.9-.18-.42-1.08-2.79-7.47.52-13.77,1.62-3.07,3.93-4.88,5.32-5.79-3.08-1.68-22.48-4.45-23.31-5.31-.85-.87,2.12-7.8.88-9.85l-8.28-7.1c3.86,1.44,21.55,12.4,24.36,9.53.67-9.67-12.02-13.72-17.05-20.57l-9.44-5.91c13.36-3.8,20.38,20.44,33.66,10.1-2.9-9.32-12.14-14.12-19.39-19.66-.99-.76-1.28-2.66-1.77-2.95-1.46-.86-4.22.83-4.02-1.27,11.42-4.46,15.54,12.69,27.55,9.52,1.11-9.44-8.51-17.75-16.24-21.38-7.17-3.37-19.22-1.83-23.86,5.13Z"/>
  <path d="M388.01,997.73c1.08,2.24,2,3.92,3.81,5.42,2.02,1.68,4.08,2.24,5.51,2.63,4.35,1.19,8.97,2.48,14.24,3.92-2.15-8.38-4.29-16.76-6.44-25.14-3.02-5.46-10.27-.53-9.72-8.46,4.25,4.58,18.19,2.87,12.64-3.79-1.44-1.73-17.03-10.84-18.88-11.01-1.2-.11-1.52.48-2.07,1.37-7.99,12.76-3.64,23.92-3.64,23.92.73,3.22,2.01,5.86,4.56,11.15Z"/>
  <g>
    <path d="M432.92,943.4c2.63-.07,4.32-3.09,6.57-.26,4.31,5.44,6.27,17.28,11.08,23.22.47,1.5-.45,1.41-1.79,1.3v.91c3.98-1.56,5.22,8.03,3.73,9.77-.77.9-15.84,12.72-16.83,13.12-2.54,1.02-5.44-2.22-5.56-4.78-.15-3.05,2.61-3.59,3.74-5.96-2.77.52-4.37,3.31-7.22.67-5.41-5.02,1.7-8.3,4.42-11.86-4.6.78-7.02,7.25-11.54,2.67-4.84-4.91,4.74-9.11,7.8-12.48-3.14-.15-6.68,1.81-7.46-2.84-1.08-6.45,5.37-6.64,8.4-10.67l-22.3,7.54,3.64,15.76c-.98,1.05-5.45-3.9-6-4.72-1.78-2.65-5.93-16.92-5.99-19.97-.09-4.65,4.57-10.54,4.31-14.71-.45-7.3-4.66-18.85-6.14-26.63-.27-1.41.55-2.84.43-3.5-.22-1.24-2.73-1.31-3.26-2.9-.16-.49-1-6.87-.92-7.23.45-2.03,11.65-4.85,14.09-5.45.81-.2,1.3-1.3,2.1.2,1.86,3.49,1.73,9.71,2.72,13.14,1.83,6.32,7.24,21.69,10.1,27.2,1.85,3.57,5.36,4.38,7.62,7.31,2.01,2.6,4.27,7.85,4.25,11.14Z"/>
    <path d="M414.1,1005.24c.3.77,1.01,2.24,2.53,3.47,2.45,1.96,5.23,1.85,5.94,1.8,8.42-3.3,15.34-4.84,20.28-5.64,3.39-.55,6-.65,7.39-2.67,1.67-2.43-3.36-13.3-3.34-16.82-1.73-1.58-11.05,10.83-12.72,11.99-1.9,1.32-13.25,4.9-14.61,3.95-2.5-2.49-6.26-21.71-7.25-22.39-2.09-1.43-5.77,1.04-4.55,4.01l6.33,22.31Z"/>
  </g>
  <path d="M297.38,899.61c5.13,6.24,6.75,15.6,9.79,23.03,1.51,3.69,6.14,9.92,6.6,12.9.71,4.57.18,7.73-3.62,27.66-.52,2.71-.93,4.9-1.18,6.2,4.45,2.4,9.05,4.8,13.82,7.16,8.25,4.09,16.29,7.76,24.05,11.05-.5-7.48-.67-15.88-.22-25.04.45-9.05,1.43-17.31,2.64-24.64,4.78-8.97,19.02-26.65,19.92-36.39.77-8.25-4.93-19.01-4.13-29.68.41-5.46,5.17-14.41,5.14-16.4-.1-6.32-8.04-3.33-11.19-.93-8.78,6.67-8.2,21.18-8.28,31.2-2.64.31-3.63-2.31-4.6-4.11-1.49-2.76-6.67-21.57-6.4-23.96.76-6.88,17.98-7.4,14.65-11.94-1.78-2.43-11.9-5.12-15.22-6-.85.21-10.53,11.76-11.46,13.24-1.48,2.37-.85,5.06-2.59,6.11l-6.88-41.84c-1.66-7.71-11.23-7.25-11.45.25-.3,10.15,1.71,22.85,2.65,33.16.14,1.56-.61,3-.45,4.55.55,5.42,2.55,10.71,2.78,16.18-10.05-8.86-17.38-22.1-26.62-31.31-3.46-3.45-8.73-7.89-11.57-1.21-1.61,3.79,4.63,12.32,7.02,16.02,6.39,9.92,14.38,18.98,20.93,28.79-1.61,1.34-28.87-16.55-34.83-13.85-6.73,3.06,1.64,9.42,5.18,12.23,7.67,6.11,19.31,9.98,25.52,17.55Z"/>
  <path d="M395.28,889.99c-1.16,1.2-2.5-1.6-2.99-2.13-12.36-13.47-8.21-35.22.04-49.79,2.04-3.6,12.93-19.74,17.44-12.45,2.36,3.81-7.09,9.52-9.85,12.58-11.94,13.26-16.06,28.86-8.1,45.46.62,1.29,4.15,5.61,3.46,6.33Z"/>
  <g>
    <path d="M621.29,766.66l18.02,90.55c-.79,4.29-12.97,11.26-16.98,12.74-5.7,2.1-23.91,5.89-28.05.54-.99-1.27-2.97-6.34-2.55-7.77.58-1.94,13.02-9.06,15.77-10.3.6-.84-8.18-16.71-9.42-18.34-.83-1.09-2.67-.96-3.74-.59-3.38,1.17,1.19,5.1,1.35,7.02.16,1.78-7.18,9.18-9.32,7.7l-31.82-57.7c.82-1.01.99-1.34,2.36-1.35,6.07-.03,12.73,1.42,19.33.81,13.02-1.21,27.04-8.92,37.07-16.97,1.33-1.07,6.72-7.6,7.97-6.32Z"/>
    <path d="M644.55,754.96c-1.48,1.04-26.95-8.06-29.67-6.84-2.72,1.23-2.47,8.51-4.17,11.11,2.25,0,4.88-.58,6.36,1.62-3.67,11.25-26.09,24.99-37.02,25.47-3.61.16-10.39-12.09-12.66-14.9,0-3.82,29.81-13.87,34.85-12.64,4.72-5.99,1.66-16.65,10.3-19.48,6.73,3.27,27.36,4.97,32.1,8.81,2.2,1.78.47,4.69-.07,6.86Z"/>
    <path d="M574.67,787.84c-2.98-.2-6.55.83-9.07-.98l-22.73-33.47c-1-.51-6.36.26-7.88.5-4.04.64-22.27,5.5-24.47,5.1-1.85-.33-2.13-5.86-1.39-7.02.81-1.28,26.01-5.07,29.8-5.69,2.17-.35,4.11-3.09,6.85-1.1l28.9,42.66Z"/>
  </g>
  <path d="M602.07,851.25l-29.2,22.73c-2.96,3.64-6.19,28.14-7.82,29.29-.78.55-5.79-.55-6.15-1.11-1.32-2.06,5.3-29.56,8.32-33.27l31.29-25.93c1.03,2,4.73,6.24,3.54,8.3Z"/>
  <g>
    <path d="M582.1,964.79c1.69.06,1.02-1.95,2.8-3,3.73-2.21,12.73-3.81,10.53,3.03-1.88,5.84-13.98,15.89-18.12,21.17l-.51-8.47c-1.27,4.61-7.88,28.89-10.61,30.25-1.56.77-32.92-6.58-33.91-8.02-.62-.9.18-3.78,1.69-4.18,2.55-.67,5.6,2.95,8.34,3.02,4.24.1,8.05-3.1,6.73-7.6-1.02-3.47-5.7-2.8-5.11-6.06,3.33.37,9.7-.99,11.16-4.28,1.83-4.1-6.37-11.38-4.8-12.67,14.66.05,7.65-14.08.01-19.61,2.36-3.76,7.52-1.86,8.24-6.59.79-5.19-3.08-8.18-2.99-13.48.1-5.61,3.47-12.89,4.27-18.59l-5.29-1.08-5.26,20.76c-3.04-.52-8.29-1.14-10.01-3.75-.73-1.11.4-25.77,1.49-26.53l58.19,15.34-16.86,50.34Z"/>
    <path d="M554.38,942.38c-3.04,4.81-13.71-2.16-17.57-2.77-4.57-.73-7.74,1.26-11.38.85-1.57-.18-1.85.47-1.59-1.59.36-2.84,2.94-10.32,5.56-11.46,3.6-1.56,30.67,5.95,24.98,14.96Z"/>
  </g>
  <g>
    <path d="M588.43,1024.74c-.94-5.94,6.09-17.56,5.5-20.31-.21-1-5.99-2.74-7.41-3.32-.77,8.2-2.44,15.9-3.46,23.58,1.79.04,3.57.05,5.36.05Z"/>
    <path d="M591.11,1024.73c.56,0,1.12,0,1.68,0,1.72-.03,3.38-.14,5.04-.26.55-.32,1.03-.65,1.32-.94,4.79-4.8,2.06-20.28,14.41-18.68-.56,1.85-3.53,1.43-5.16,2.75-1.62,1.32-4.73,9.86-5.48,16.39,3.38-.4,6.68-.93,9.89-1.64.82-3.4,1.94-6.24,7.28-5.38.17,1.74-3.09,1.18-3.6,1.99-.26.43-.36,1.4-.43,2.58,6.37-1.63,12.57-3.85,18.89-6.58-1.93-3.41-3.97-6.75-6.07-10.05-1.75-2.74-7.61-12.61-9.28-14.09-.6-.53-.64-.83-1.64-.77-2.22.12-18.62,8.44-19.73,10.17-.61,4.18-8.11,20.46-7.12,24.5Z"/>
    <path d="M615.43,989.91c-9.38-3.05-16.03,10.09-22,11.18-3.19.58-5.64-6.95-3.85-9.04,1.05-1.23,14.21-11.4,15.16-11.5,3.68-.39,11.76,8.43,10.69,9.35Z"/>
  </g>
  <path d="M288.42,928.56c11.76-1.91,12.85,17.83,1.55,18.48-9.31.54-12.73-16.67-1.55-18.48Z"/>
  <circle cx="432.77" cy="895.46" r="6"/>
  <circle cx="780.77" cy="817.58" r="5.93"/>
  <path d="M731.72,882.82c5.36,4.37-.94,11.98-5.05,10.24-10.33-4.4-1.61-15.65,5.05-10.24Z"/>
  <path d="M754.36,960.88c-1.68,1.57-1.58-.72-1.94-1.34-2.62-4.41-4.08-6.16-8.26-9.39,1.86-1.12,3.47-5.51,5.26-5.98,5.86-1.53,7.36,14.45,4.95,16.7Z"/>
  <path d="M630.54,998.49c4.36,9.26,5.6,15.84,10.49,17.21,1.19.33,2.98.51,5.43-.36,9.35-2.46,18.69-4.91,28.04-7.37,7.28-7.35,14.57-14.69,21.85-22.04l11.82-40.36c-1.39-6.93-11.94,3.62-13.87,6.61-1.89,2.92-6.14,15.92-6.9,16.38-.68.41-6.48.34-6.73.11-4.41-21.19-5.89-44.42-12.92-64.87-1.05-3.07-8.66-25.11-13.39-15.34-2.84,5.87,5.07,26.8,6.34,34.28.92,5.43.05,12.29,1.96,17.87l-.86,3.33c-2.01-12.2-4.93-24.15-9.46-35.64-1.64-4.15-7.77-18.58-10.33-21.11-3.13-3.08-9.31-2.19-8.98,2.66.12,1.75,3.34,10.3,4.21,12.73,1.91,5.36,6.07,12.13,7.46,17.31,2,7.46,2.27,17.3,4.19,25.03l-12.68-31.4c-2.22-3.43-13.51-18.69-17.57-12.2-.7,1.11-.53,2.03-.29,3.23,1.25,6.2,9.88,16.54,12.54,23.3l7.1,26.98-15.83-16.36c-2.44-3.14-17.75-12.71-16.88-3.03.43,4.79,19.33,19.4,22.06,27.58,4.61,13.81-4.37,19.42,3.19,35.46Z"/>
  <g>
    <path d="M1026.29,557.04c-.1-.27-.26-.67-.46-1.13-1.85-4.29-4.22-7.1-4.79-7.77-2.65-3.17-5.23-6.31-8.08-5.81-2.41.43-4.5,2.61-5.13,6.58.65,2.88,1.39,5.86,2.23,8.93,0,0,1.41,5.16,2.85,9.46,3.34,10.05,9.16,21.08,10.88,24.28.38-5.63.78-11.28,1.19-16.95.43-5.88.86-11.74,1.31-17.58Z"/>
    <path d="M1010.16,662.14c3.99-15.41,7.53-31.99,10.31-49.66.93-5.91,1.74-11.72,2.44-17.43-6.6-8.07-13.24-16.31-19.89-24.72-5.56-7.04-11.01-14.03-16.35-20.98-5.67-2.88-10.56.86-9.32,6.7l27.44,42.6-23.28-29.51c-5.62-6.06-13.34-15.66-16.45-2l34.87,51.56c-9.33-2.67-22.67-22.55-30.02-24.58-5.21-1.44-7.87,1.64-8.13,6.18,9.4,7.85,20.63,18.78,31.29,33.4,7.4,10.15,12.93,19.89,17.08,28.43Z"/>
    <path d="M971.02,764.83c.43-.86.85-1.73,1.28-2.59,2.69-5.49,5.39-10.99,8.08-16.48-4.11-2.31-8.9,2.4-10.29-4.64,5.3,3.32,18.31-1.97,11.21-6.96-1.84-1.29-19.27-6.02-21.1-5.71-1.18.2-1.34.86-1.65,1.86-.45,1.49,2.08,22.85,2.73,24.04.68,1.25,7.19,7.85,9.74,10.47Z"/>
    <path d="M949.92,663.19c.29.61-.13,2.2.5,3.49,3.45,7.13,10.53,17.18,12.87,24.11,1.34,3.96-1.63,10.85-.33,15.32.85,2.93,8.58,15.63,10.99,17.72.74.64,6.35,4.26,7.02,2.99l-7.63-14.26,19.56-13.1c-1.87,4.68-8.04,6.54-5.32,12.49.57,1.25,1.54,1.9,1.94,2.17,1.76,1.18,3.61,1.03,4.16.97,2.61-7.4,5.22-14.8,7.82-22.2-1.84-.3-2.78,2.04-4.83,2.65-.84-3.19-4.4-7.66-7.01-9.65-2.94-2.23-6.54-2.11-9.26-5.07-4.2-4.58-13.44-18-16.85-23.63-1.85-3.05-3.35-9.08-6.06-11.97-1.16-1.24-1.34-.05-2.08.35-2.21,1.21-12.28,6.86-12.18,8.93.02.36,2.49,6.31,2.78,6.74.93,1.4,3.37.81,3.91,1.95Z"/>
    <g>
      <path d="M868.75,897.53c8.26-7.75,16.76-16.19,25.39-25.35,9.45-10.04,18.04-19.9,25.84-29.4,1.15-7.33,1.29-12.29,1.26-15.05-.01-1.48-.1-3.65-1.52-4.62-.82-.56-2.06-.62-3.9-.04-3.32,1.05-6.93,9.57-7.99,12.93-.86,2.75-1.6,12.42-2.04,12.9-.89.98-6.21,2.02-7.75,1.27-1.78-.86-9.19-13.89-9.63-16.13-1-5.07,2.05-21.17,2.44-27.57.26-4.22,1.53-15.13.33-18.48-1.2-3.37-5.05-7.06-7.96-3.41l-8.88,43.96c-3.85-10.4.28-39.75-5.83-47.45-7.6-9.58-8.03,9.5-8.36,13.83-.69,8.94-.96,18.75.93,27.55-1.7.06-2.2-1.12-2.57-2.55-.86-3.41.18-32.68-8.72-27.2-3.51,10.29-2.95,22.44-1.32,33.15-3.4-.88-1.91-6.72-2.54-9.51-1.21-5.38-6.36-9.91-7.86-2.17-4.43,22.77,15.2,58.86,27.58,77.77.07.11.54.71,1.08,1.58.96,1.53,1.59,2.93,2,4Z"/>
      <path d="M884.53,658.49c1.28-1.34.09-3.55.83-5.98.46-1.51,6.22-13.96,6.92-14.34,3.12-.02,12.64-.05,14.78,1.66,4,3.2-11,7.74-10.03,13.96.34,2.16,9.34,17.45,11.31,19.52,1.28,1.35,2.77,3.41,5.01,2.51-2.31-8.82-6.26-21.42-.14-29.36,2.2-2.86,8.47-7.36,10.05-1.84.5,1.74-1.56,10.72-.63,15.62,1.82,9.56,9.38,17.66,10.67,25.08,1.52,8.77-6.79,27.67-8.86,36.68,4.7,20.22,10.85,41.58,18.87,63.71,2,5.51,4.05,10.89,6.14,16.15-7.67,10.86-15.34,21.72-23.01,32.57-20.89-73.45-30.79-103.37-33.73-106.12-.12-.11-1.85-1.7-4.02-4.03-1.42-1.52-3.09-3.44-4.84-5.73-4.43-5.81-8.08-13.63-14.06-17.9-7.25-5.17-18.39-5.81-26.57-9.35-3.77-1.63-12.63-5.23-7.45-9.51,4.59-3.79,32.77,5.45,33.87,3.9-8.08-7.07-17.24-13.12-25.21-20.32-2.98-2.69-10.49-8.69-9.97-12.4.91-6.54,6.59-3.88,10.45-1.68,10.3,5.89,19.88,15.77,30.8,21.17-1.5-4.75-4.51-8.92-6.28-13.55-.5-1.32-.19-2.77-.68-4.1-3.27-8.83-8.05-19.5-10.2-28.49-1.58-6.64,6.7-9.31,9.99-2.94l15.97,35.1Z"/>
    </g>
  </g>
  <path d="M857.36,721.48c10.85-4.91,17.06,13.86,6.32,17.44-8.84,2.95-16.64-12.77-6.32-17.44Z"/>
  <circle cx="843.45" cy="767.34" r="6"/>
  <g>
    <path class="cls-4" d="M813.87,360.89l-41.22,6.99c-1.28.22-10.33,10.88-13.25,11.88-1.85.63-18.06-3.62-25.9-2.03-9.13,1.86-21.24,12.37-22.53,12.58l-65.22,11.07-11.84-69.81c17.86-4,37.58,5.02,54.87,3.73,8.04-.6,24.71-3.26,32.33-5.47,13.07-3.78,6.53-11.84-.37-17.86-10.71-9.35-50.37-39.65-61.97-42.86-1.88-.52-9.31-2.2-10.56-1.99l-38.09,6.46,22.07,130.1-214.44,36.38c-.66.11-9.51-3.6-12.8-4.05-10.4-1.42-19.1-.02-28.33,5.07-2.09,1.15-9.38,7.55-10,7.65l-58.44,9.91c-1.14.19-1.93-2.33-2.24-3.37-6.48-22.26-9.41-56.98-12.5-80.59-.87-6.68-2.78-13.45-3.45-20.12-2.06-20.66-2.42-42.02,3.61-61.93l312.38-53.22c58.03-12.02,94.75,42.15,138.2,67.97,16.73,9.94,52.13,14.51,62.53,31.54,3.8,6.22,6.18,14.77,7.17,21.95ZM394.1,310.24l-81.39,13.81,10.05,59.23,81.39-13.81-10.05-59.23ZM481.76,295.37l-63.65,10.8,10.05,59.23,63.65-10.8-10.05-59.23ZM505.76,291.29l10.05,59.23,81.39-13.81-10.05-59.23-81.39,13.81ZM330.36,440.75l-5.83-34.38c-.55-3.26-8.4-5.44-11.42-4.05l6.82,40.19,10.44-1.77ZM795.88,349.8c-2.87-9.59-13.44-13.43-22.26-14.81-1.56.54-3.23,16.4-1.74,18.88l24-4.07Z"/>
    <g>
      <path class="cls-4" d="M700.08,405.23c-2.19,10.15-3.35,19.13-.37,29.45l-256.11,43.47c-2.16-9.91-5.06-19.51-11.71-27.41l268.19-45.5Z"/>
      <path class="cls-4" d="M430.58,475.1c3.05,17.99-8.86,35.01-26.61,38.03-17.75,3.01-34.61-9.13-37.66-27.12-3.05-17.99,8.86-35.01,26.61-38.03,17.75-3.01,34.61,9.13,37.66,27.12ZM412.81,478.17c-1.37-8.06-8.92-13.49-16.87-12.15-7.95,1.35-13.28,8.97-11.92,17.03,1.37,8.06,8.92,13.49,16.87,12.15,7.95-1.35,13.28-8.97,11.92-17.03Z"/>
      <path class="cls-4" d="M774.37,416.82c3.05,17.98-8.86,35-26.6,38.01-17.74,3.01-34.59-9.13-37.64-27.11-3.05-17.98,8.86-35,26.6-38.01,17.74-3.01,34.59,9.13,37.64,27.11ZM756.62,419.82c-1.37-8.06-8.92-13.5-16.87-12.15s-13.29,8.98-11.92,17.03c1.37,8.06,8.92,13.5,16.87,12.15,7.95-1.35,13.29-8.98,11.92-17.03Z"/>
      <path class="cls-4" d="M822.28,372.52c3.17,9.01,6.54,25.83,2.02,34.42-6.45,12.27-26.31,9.51-37.99,13.03.22-12.78-6.86-23.64-15.24-32.75,2.16-.87,7.68-7.31,8.94-7.52l42.26-7.17Z"/>
      <path class="cls-4" d="M356.76,463.48c-2.5,9.84-4.02,19.51-1.41,29.62-23.84,3.18-53.43,17.4-52.85-20.42l54.26-9.21Z"/>
    </g>
  </g>
  <path d="M496.91,762.79c5.36,4.37-.94,11.98-5.05,10.24-10.33-4.4-1.61-15.65,5.05-10.24Z"/>
  <path d="M519.55,840.84c-1.68,1.57-1.58-.72-1.94-1.34-2.62-4.41-4.08-6.16-8.26-9.39,1.86-1.12,3.47-5.51,5.26-5.98,5.86-1.53,7.36,14.45,4.95,16.7Z"/>
</svg>