<?xml version="1.0" encoding="UTF-8"?>
<svg id="Capa_1" data-name="Capa 1" xmlns="http://www.w3.org/2000/svg" viewBox="0 0 1080 1080">
  <defs>
    <style>
      .cls-1 {
        fill: #fff;
      }

      .cls-2 {
        fill: #420390;
      }

      .cls-3 {
        fill: #ee7203;
      }
    </style>
  </defs>
  <circle class="cls-2" cx="540" cy="540" r="462.54"/>
  <g>
    <path class="cls-1" d="M135.04,404.68l7.99-15.57,64.55,20.01-53.71-41.13,6.53-12.73,69.57,56.64-8.93,16.42-86.01-23.64Z"/>
    <path class="cls-1" d="M176.99,329.55l9.44-13.89,84.41,31.13-9.59,14.11-17.05-7.01-12.01,17.68,12.83,13.22-8.61,12.68-59.41-67.93ZM230.05,348.08l-33.9-13.76,25.45,26.19,8.45-12.43Z"/>
    <path class="cls-1" d="M211.15,282.33l12.53-13.63,53.14,22.33-39.94-36.7,8.73-9.5,64.29,59.08-10.08,10.97-62.18-25.73,46.53,42.76-8.73,9.5-64.29-59.08Z"/>
    <path class="cls-1" d="M301.11,198.94l13.85-9.5,67.28,59.73-14.07,9.65-13.33-12.73-17.63,12.09,7.13,16.98-12.64,8.67-30.6-84.89ZM343.78,235.52l-26.56-25.16,14.17,33.66,12.39-8.5Z"/>
    <path class="cls-1" d="M351.79,167.39l15.08-7.13,30.34,64.12,22.12-10.46,7,14.8-37.2,17.6-37.34-78.93Z"/>
    <path class="cls-1" d="M487.22,180.7l15.34-1.76c1.19,9.41.04,17.46-3.46,24.17s-9.02,10.76-16.57,12.17c-9.18,1.71-16.91-.9-23.18-7.84-6.27-6.94-10.69-17.29-13.26-31.04-2.59-13.88-2.23-25.18,1.08-33.91,3.31-8.73,9.67-13.97,19.07-15.73,15.56-2.9,26.1,6.58,31.61,28.46l-14.74,4.05c-2.78-12.67-7.43-18.39-13.95-17.18-3.43.64-5.77,3.2-7.02,7.69-1.26,4.49-.78,12.64,1.42,24.46,1.97,10.56,4.26,17.65,6.85,21.27,2.6,3.61,5.75,5.08,9.47,4.38,5.98-1.11,8.42-7.51,7.33-19.2Z"/>
    <path class="cls-1" d="M571.55,166.55c-.85,30.01-10.44,44.75-28.78,44.24-9.12-.26-15.88-4.28-20.3-12.06-4.42-7.78-6.42-19.03-6-33.73.84-29.97,10.44-44.69,28.78-44.17,8.97.25,15.7,4.2,20.19,11.83,4.49,7.64,6.53,18.93,6.11,33.89ZM553.98,166.05c.33-11.77-.25-19.62-1.73-23.56-1.48-3.95-3.97-5.97-7.45-6.07-3.45-.1-6.02,1.79-7.72,5.67-1.7,3.88-2.72,11.68-3.05,23.4-.33,11.51.24,19.31,1.7,23.4,1.46,4.09,3.93,6.19,7.42,6.29,3.45.1,6.03-1.77,7.75-5.6,1.72-3.83,2.75-11.67,3.08-23.53Z"/>
    <path class="cls-1" d="M601.83,127.11l17.99,4.36,6.18,57.31,12.79-52.71,12.54,3.04-20.58,84.85-14.48-3.51-7.58-66.87-14.9,61.42-12.54-3.04,20.58-84.85Z"/>
    <path class="cls-1" d="M690.73,215.36l13.54,7.43c-4.46,8.37-10.06,14.28-16.79,17.73-6.73,3.45-13.58,3.57-20.55.36-8.49-3.91-13.28-10.5-14.4-19.79-1.11-9.29,1.26-20.29,7.1-32.99,5.9-12.82,12.72-21.84,20.47-27.05,7.74-5.21,15.96-5.82,24.65-1.82,14.38,6.62,17.5,20.45,9.37,41.49l-14.38-5.21c5.05-11.95,4.56-19.31-1.47-22.08-3.17-1.46-6.56-.72-10.17,2.22-3.62,2.94-7.94,9.87-12.97,20.79-4.49,9.76-6.72,16.87-6.69,21.32.03,4.45,1.77,7.47,5.2,9.05,5.52,2.54,11.21-1.27,17.08-11.43Z"/>
    <path class="cls-1" d="M747.63,183.7l14.07,8.96-46.91,73.64-14.07-8.96,46.91-73.64Z"/>
    <path class="cls-1" d="M783.57,207.67l35.74,29.2-9.47,11.59-22.82-18.65-12.83,15.7,17.74,14.5-9.47,11.59-17.74-14.5-13.6,16.64,22.82,18.65-9.88,12.09-35.74-29.2,55.25-67.61Z"/>
    <path class="cls-1" d="M835.34,252.37l16.07,17.63c3.12,3.42,5.33,6.21,6.63,8.37,1.3,2.15,2,4.89,2.11,8.2.11,3.31-.74,6.75-2.54,10.32-1.8,3.57-4.41,6.92-7.85,10.05-8.07,7.35-16.14,9.89-24.21,7.62l-18.83,36.04-12.23-13.42,18.69-30.77-5.61-6.16-25.53,23.26-11.24-12.33,64.54-58.81ZM836.12,274.22l-18.11,16.5,4.94,5.42c4.39,4.82,9.7,4.41,15.91-1.25,2.14-1.95,3.58-3.91,4.3-5.87.72-1.96.9-3.64.52-5.03-.37-1.39-1.4-3-3.07-4.84l-4.49-4.93Z"/>
    <path class="cls-1" d="M880.6,304.18l27.01,38.85-13.45,9.35-8.86-12.74-58.25,40.49-9.52-13.7,58.25-40.49-8.63-12.42,13.45-9.35Z"/>
    <path class="cls-1" d="M903.47,426.32c-26.58,13.96-44.13,12.81-52.67-3.43-4.24-8.07-4.05-15.94.58-23.6,4.62-7.66,13.45-14.91,26.47-21.75,26.54-13.94,44.08-12.78,52.61,3.46,4.17,7.94,4.03,15.74-.43,23.4-4.46,7.66-13.31,14.97-26.56,21.92ZM895.31,410.77c10.42-5.47,16.99-9.82,19.7-13.05,2.71-3.23,3.26-6.38,1.64-9.47-1.6-3.05-4.51-4.37-8.73-3.96-4.22.41-11.51,3.35-21.9,8.8-10.19,5.35-16.72,9.67-19.57,12.95s-3.47,6.46-1.85,9.54c1.6,3.05,4.5,4.39,8.68,4.01,4.18-.38,11.53-3.32,22.02-8.83Z"/>
  </g>
  <g>
    <path class="cls-1" d="M212.28,621.48l8.71,15.92-51.71,42.07,63.52-20.47,7.12,13.02-85.09,24.51-8.91-17.21,66.36-57.84Z"/>
    <path class="cls-1" d="M251.35,688.6l9.92,14.32-57.88,67.44-10.07-14.55,12.37-13.34-12.62-18.23-16.8,6.94-9.05-13.07,84.15-29.51ZM215.94,731.41l24.43-26.59-33.3,13.78,8.87,12.82Z"/>
    <path class="cls-1" d="M278.31,726.46l12.9,14.23-25.97,50.87,39.57-35.88,8.99,9.91-63.7,57.75-10.38-11.45,29.99-59.58-46.1,41.8-8.99-9.91,63.7-57.75Z"/>
    <path class="cls-1" d="M354.14,799.06l14.28,9.96-30.75,83.38-14.51-10.12,6.94-16.82-18.19-12.69-13.33,12.36-13.04-9.1,68.58-56.99ZM335.87,851.52l13.63-33.44-26.41,24.52,12.78,8.92Z"/>
    <path class="cls-1" d="M392.6,824l15.67,7.33-29.59,63.28,22.99,10.75-6.83,14.61-38.66-18.08,36.42-77.88Z"/>
    <path class="cls-1" d="M489.52,911.37l15.59,3.66c-2.09,9.1-6,16.15-11.74,21.14-5.74,4.99-12.53,6.83-20.38,5.54-9.56-1.58-16.2-6.66-19.93-15.23-3.73-8.58-4.47-19.66-2.22-33.25,2.27-13.71,6.53-24.03,12.78-30.96,6.25-6.93,14.27-9.58,24.05-7.96,16.2,2.68,23.21,15.07,21.03,37.19l-15.8-1.33c1.67-12.66-.9-19.56-7.69-20.68-3.57-.59-6.74.97-9.51,4.68-2.78,3.71-5.13,11.41-7.06,23.09-1.73,10.44-1.95,17.78-.66,22.01,1.29,4.24,3.87,6.67,7.73,7.31,6.22,1.03,10.82-4.04,13.8-15.21Z"/>
    <path class="cls-1" d="M578.9,900.36c1.43,29.53-7.36,44.75-26.37,45.67-9.45.46-16.75-2.96-21.92-10.26-5.17-7.3-8.1-18.18-8.8-32.65-1.43-29.49,7.36-44.69,26.37-45.61,9.29-.45,16.56,2.9,21.79,10.04,5.23,7.15,8.21,18.08,8.92,32.8ZM560.69,901.24c-.56-11.58-1.76-19.24-3.6-23-1.84-3.76-4.56-5.55-8.17-5.37-3.57.17-6.09,2.23-7.55,6.17-1.46,3.94-1.92,11.68-1.36,23.21.55,11.33,1.73,18.94,3.56,22.85,1.83,3.91,4.54,5.77,8.15,5.6,3.57-.17,6.1-2.21,7.59-6.11,1.49-3.9,1.95-11.68,1.38-23.34Z"/>
    <path class="cls-1" d="M586.59,855.66l18.59-4.8,32.96,46.65-13.36-51.71,12.95-3.35,21.51,83.25-14.96,3.87-38.8-54.25,15.57,60.25-12.95,3.35-21.51-83.25Z"/>
    <path class="cls-1" d="M707.94,870.96l14.92-5.82c3.44,8.68,4.21,16.71,2.32,24.07s-6.45,12.73-13.65,16.12c-8.77,4.12-17.12,3.7-25.05-1.25-7.93-4.95-14.82-13.66-20.68-26.13-5.91-12.58-8.25-23.5-7.03-32.75,1.22-9.25,6.32-15.98,15.3-20.2,14.86-6.98,27.66-.74,38.41,18.71l-13.77,7.86c-5.81-11.38-11.83-15.6-18.06-12.68-3.27,1.54-5,4.62-5.18,9.25-.18,4.63,2.24,12.31,7.28,23.03,4.5,9.58,8.48,15.75,11.94,18.51,3.46,2.76,6.97,3.3,10.52,1.64,5.71-2.68,6.62-9.46,2.74-20.35Z"/>
    <path class="cls-1" d="M707.94,808.24l14.57-9.33,46.37,72.4-14.57,9.33-46.37-72.4Z"/>
    <path class="cls-1" d="M735.84,790.08l37.11-30.23,9.31,11.43-23.7,19.3,12.61,15.48,18.42-15.01,9.31,11.43-18.42,15.01,13.37,16.41,23.7-19.3,9.71,11.92-37.11,30.23-54.3-66.66Z"/>
    <path class="cls-1" d="M779.17,753.7l16.76-18.2c3.25-3.54,5.93-6.08,8.01-7.63,2.09-1.55,4.8-2.57,8.13-3.06,3.33-.49,6.85-.03,10.55,1.37,3.71,1.4,7.24,3.65,10.61,6.75,7.91,7.28,10.97,15.12,9.18,23.51l37.47,14.83-12.76,13.85-32.15-15.3-5.86,6.36,25.02,23.04-11.72,12.73-63.25-58.24ZM801.13,750.4l17.75,16.34,5.16-5.6c4.58-4.98,3.83-10.27-2.25-15.87-2.1-1.93-4.16-3.15-6.18-3.65-2.02-.5-3.72-.49-5.1.05-1.38.54-2.94,1.75-4.68,3.64l-4.69,5.09Z"/>
    <path class="cls-1" d="M818.29,710.29l28.32-40.09,13.17,9.3-9.28,13.14,57.06,40.3-9.98,14.13-57.06-40.3-9.05,12.81-13.17-9.3Z"/>
    <path class="cls-1" d="M914.38,635.85c26.05,13.97,34.58,29.34,25.58,46.12-4.47,8.33-11.16,12.84-20.08,13.51-8.91.67-19.75-2.42-32.52-9.26-26.01-13.95-34.52-29.32-25.53-46.09,4.4-8.2,11.01-12.7,19.83-13.51,8.82-.81,19.73,2.27,32.71,9.24ZM905.77,651.91c-10.21-5.48-17.4-8.4-21.57-8.76-4.17-.36-7.11,1.05-8.81,4.24-1.69,3.15-1.22,6.37,1.4,9.65,2.62,3.28,9.02,7.65,19.2,13.11,9.99,5.36,17.13,8.26,21.42,8.71,4.29.45,7.29-.92,8.99-4.11,1.69-3.15,1.25-6.37-1.33-9.65-2.58-3.28-9.01-7.68-19.3-13.2Z"/>
  </g>
  <circle class="cls-1" cx="920.8" cy="529.54" r="33.29"/>
  <path class="cls-3" d="M459.86,631.98c-.43.54-.63,8.43-2.98,13.44-23.5,50.11-97.04,38.86-110.93-13.17-4-2.85-62.15,1.7-74.12-.32-10.53-1.79-14.34-15.58-5.23-22.89,6.57-5.27,19.52.57,23.04-4.71l2.23-164.3c6.01-22.07,22.77-35.61,45.53-37.74l388.19.45c4.47,1.32,20.1,27.84,23.93,34.11,13.11,21.46,24.95,44.01,37.79,65.66l.83,100.1c2.5,7.78,17.71,1.74,24.94,5.34,7.79,3.88,7.2,20.97-1.73,23.55-14.04,4.06-50.58-3.88-61.42,1.66-4.92,2.51-7.93,13.9-11.44,18.84-24.47,34.44-73.76,34.69-98.15,0-3.68-5.24-6.7-18.6-10.53-19.75l-169.97-.25ZM424.48,493.16v-61.82c0-.27-3.52-3.78-3.78-3.78h-85.79c-4.83,0-18.92,11.76-18.92,16.4v49.2h108.5ZM447.19,427.55v65.6h143.83v-65.6h-143.83ZM749.98,493.16c.59-3.67-.49-6.19-1.96-9.39-8.41-18.24-25.02-37.95-34.62-56.21h-97.15v65.6h133.73ZM315.98,609.23c7.31-1.31,24.99,2.39,30.36-1.18,3.22-2.14,7.93-16.51,11.4-21.41,22.94-32.43,70.1-32.53,93.11,0,4.95,7,6.5,16.32,12.74,22.58h126.16c.27,0,3.78-3.52,3.78-3.78v-85.79c0-.27-3.52-3.78-3.78-3.78h-273.77c-.76,0,.52,12.64,0,15.15,31.3-5.13,31.16,26.95,0,22.7v55.51ZM762.6,515.87h-142.56c-.27,0-3.78,3.52-3.78,3.78v89.58c4.37-4.15,14.89-1.14,17.36-2.83.9-.62,6.38-15.7,9.26-19.75,29.78-41.95,94.75-28.54,102.08,22.6,5.62-3.18,11.35-2.83,17.66-2.53-1.5-9.03,3-48.39-2.44-51.84-5.92-3.75-18.11.38-17.99-12.52.14-15.29,16.12-9.06,19.32-13.71,1.47-2.14,1.61-12.33,1.1-12.78ZM437.28,619.42c0-18.3-14.83-33.13-33.13-33.13s-33.13,14.83-33.13,33.13,14.83,33.13,33.13,33.13,33.13-14.83,33.13-33.13ZM722.62,619.49c0-18.3-14.83-33.13-33.13-33.13s-33.13,14.83-33.13,33.13,14.83,33.13,33.13,33.13,33.13-14.83,33.13-33.13Z"/>
</svg>